# xmcd
#
# Track frame offsets:
#	150
#	15272
#	29503
#	46365
#	61253
#	77251
#	94231
#	108564
#	122942
#	136650
#	151663
#	164747
#
# Disc length: 2515 seconds
#
# Revision: 1
# Processed by: cddbd v1.5PL3 Copyright (c) Steve Scherf et al.
# Submitted via: audiograbber 1.80
#
DISCID=8e09d10c
DTITLE=Euforia - Sin limites
DYEAR=1900
DGENRE=
TTITLE0=Mentirosa
TTITLE1=Niegalo
TTITLE2=Lo Siento Por Ti 
TTITLE3=Limite
TTITLE4=Loteria
TTITLE5=Arrepentida
TTITLE6=Dejame
TTITLE7=LLevas Mi Vida 
TTITLE8=Te Extraño 
TTITLE9=Pegaito
TTITLE10=No Puedo Olvidarte 
TTITLE11=Mentiros (Remix)
EXTD=Exlimite
EXTT0=
EXTT1=
EXTT2=
EXTT3=
EXTT4=
EXTT5=
EXTT6=
EXTT7=
EXTT8=
EXTT9=
EXTT10=
EXTT11=
PLAYORDER=
